<?xml version="1.0" encoding="UTF-8" standalone="no"?>
<!-- Created with Inkscape (http://www.inkscape.org/) -->

<svg
   width="300"
   height="300"
   viewBox="0 0 300 300"
   version="1.1"
   id="svg1"
   inkscape:export-filename="logo1.svg"
   inkscape:export-xdpi="32"
   inkscape:export-ydpi="32"
   xmlns:inkscape="http://www.inkscape.org/namespaces/inkscape"
   xmlns:sodipodi="http://sodipodi.sourceforge.net/DTD/sodipodi-0.dtd"
   xmlns="http://www.w3.org/2000/svg"
   xmlns:svg="http://www.w3.org/2000/svg">
  <sodipodi:namedview
     id="namedview1"
     pagecolor="#505050"
     bordercolor="#fffff"
     borderopacity="1"
     inkscape:showpageshadow="0"
     inkscape:pageopacity="0"
     inkscape:pagecheckerboard="1"
     inkscape:deskcolor="#505050"
     inkscape:document-units="px"
     showgrid="true">
    <inkscape:grid
       id="grid3"
       units="px"
       originx="0"
       originy="0"
       spacingx="1"
       spacingy="1"
       empcolor="#0099e5"
       empopacity="0.30196078"
       color="#0099e5"
       opacity="0.14901961"
       empspacing="5"
       dotted="false"
       gridanglex="30"
       gridanglez="30"
       visible="true" />
  </sodipodi:namedview>
  <defs
     id="defs1">
    <inkscape:path-effect
       effect="spiro"
       id="path-effect44"
       is_visible="true"
       lpeversion="1" />
    <inkscape:path-effect
       effect="spiro"
       id="path-effect43"
       is_visible="true"
       lpeversion="1" />
    <inkscape:path-effect
       effect="spiro"
       id="path-effect42"
       is_visible="true"
       lpeversion="1" />
    <inkscape:path-effect
       effect="spiro"
       id="path-effect41"
       is_visible="true"
       lpeversion="1" />
    <inkscape:path-effect
       effect="spiro"
       id="path-effect40"
       is_visible="true"
       lpeversion="1" />
    <inkscape:path-effect
       effect="spiro"
       id="path-effect32"
       is_visible="true"
       lpeversion="1" />
    <inkscape:path-effect
       effect="spiro"
       id="path-effect30"
       is_visible="true"
       lpeversion="1" />
    <inkscape:path-effect
       effect="bspline"
       id="path-effect22"
       is_visible="true"
       lpeversion="1.3"
       weight="33.333333"
       steps="2"
       helper_size="0"
       apply_no_weight="true"
       apply_with_weight="true"
       only_selected="false"
       uniform="false" />
    <inkscape:path-effect
       effect="bspline"
       id="path-effect21"
       is_visible="true"
       lpeversion="1.3"
       weight="33.333333"
       steps="2"
       helper_size="0"
       apply_no_weight="true"
       apply_with_weight="true"
       only_selected="false"
       uniform="false" />
    <inkscape:path-effect
       effect="bspline"
       id="path-effect20"
       is_visible="true"
       lpeversion="1.3"
       weight="33.333333"
       steps="2"
       helper_size="0"
       apply_no_weight="true"
       apply_with_weight="true"
       only_selected="false"
       uniform="false" />
    <inkscape:path-effect
       effect="bspline"
       id="path-effect19"
       is_visible="true"
       lpeversion="1.3"
       weight="33.333333"
       steps="2"
       helper_size="0"
       apply_no_weight="true"
       apply_with_weight="true"
       only_selected="false"
       uniform="false" />
    <inkscape:path-effect
       effect="bspline"
       id="path-effect18"
       is_visible="true"
       lpeversion="1.3"
       weight="33.333333"
       steps="2"
       helper_size="0"
       apply_no_weight="true"
       apply_with_weight="true"
       only_selected="false"
       uniform="false" />
    <inkscape:path-effect
       effect="bspline"
       id="path-effect17"
       is_visible="true"
       lpeversion="1.3"
       weight="33.333333"
       steps="2"
       helper_size="0"
       apply_no_weight="true"
       apply_with_weight="true"
       only_selected="false"
       uniform="false" />
    <inkscape:path-effect
       effect="bspline"
       id="path-effect16"
       is_visible="true"
       lpeversion="1.3"
       weight="33.333333"
       steps="2"
       helper_size="0"
       apply_no_weight="true"
       apply_with_weight="true"
       only_selected="false"
       uniform="false" />
    <inkscape:path-effect
       effect="bspline"
       id="path-effect15"
       is_visible="true"
       lpeversion="1.3"
       weight="33.333333"
       steps="2"
       helper_size="0"
       apply_no_weight="true"
       apply_with_weight="true"
       only_selected="false"
       uniform="false" />
    <inkscape:path-effect
       effect="bspline"
       id="path-effect14"
       is_visible="true"
       lpeversion="1.3"
       weight="33.333333"
       steps="2"
       helper_size="0"
       apply_no_weight="true"
       apply_with_weight="true"
       only_selected="false"
       uniform="false" />
    <inkscape:path-effect
       effect="bspline"
       id="path-effect13"
       is_visible="true"
       lpeversion="1.3"
       weight="33.333333"
       steps="2"
       helper_size="0"
       apply_no_weight="true"
       apply_with_weight="true"
       only_selected="false"
       uniform="false" />
    <inkscape:path-effect
       effect="bspline"
       id="path-effect12"
       is_visible="true"
       lpeversion="1.3"
       weight="33.333333"
       steps="2"
       helper_size="0"
       apply_no_weight="true"
       apply_with_weight="true"
       only_selected="false"
       uniform="false" />
    <inkscape:path-effect
       effect="bspline"
       id="path-effect11"
       is_visible="true"
       lpeversion="1.3"
       weight="33.333333"
       steps="2"
       helper_size="0"
       apply_no_weight="true"
       apply_with_weight="true"
       only_selected="false"
       uniform="false" />
    <inkscape:path-effect
       effect="bspline"
       id="path-effect10"
       is_visible="true"
       lpeversion="1.3"
       weight="33.333333"
       steps="2"
       helper_size="0"
       apply_no_weight="true"
       apply_with_weight="true"
       only_selected="false"
       uniform="false" />
    <inkscape:path-effect
       effect="bspline"
       id="path-effect9"
       is_visible="true"
       lpeversion="1.3"
       weight="33.333333"
       steps="2"
       helper_size="0"
       apply_no_weight="true"
       apply_with_weight="true"
       only_selected="false"
       uniform="false" />
    <inkscape:path-effect
       effect="bspline"
       id="path-effect8"
       is_visible="true"
       lpeversion="1.3"
       weight="33.333333"
       steps="2"
       helper_size="0"
       apply_no_weight="true"
       apply_with_weight="true"
       only_selected="false"
       uniform="false" />
    <inkscape:path-effect
       effect="bspline"
       id="path-effect7"
       is_visible="true"
       lpeversion="1.3"
       weight="33.333333"
       steps="2"
       helper_size="0"
       apply_no_weight="true"
       apply_with_weight="true"
       only_selected="false"
       uniform="false" />
    <inkscape:path-effect
       effect="bspline"
       id="path-effect6"
       is_visible="true"
       lpeversion="1.3"
       weight="33.333333"
       steps="2"
       helper_size="0"
       apply_no_weight="true"
       apply_with_weight="true"
       only_selected="false"
       uniform="false" />
    <inkscape:path-effect
       effect="bspline"
       id="path-effect4"
       is_visible="true"
       lpeversion="1.3"
       weight="33.333333"
       steps="2"
       helper_size="0"
       apply_no_weight="true"
       apply_with_weight="true"
       only_selected="false"
       uniform="false" />
    <inkscape:path-effect
       effect="bspline"
       id="path-effect3"
       is_visible="true"
       lpeversion="1.3"
       weight="33.333333"
       steps="2"
       helper_size="0"
       apply_no_weight="true"
       apply_with_weight="true"
       only_selected="false"
       uniform="false" />
    <inkscape:path-effect
       effect="bspline"
       id="path-effect2"
       is_visible="true"
       lpeversion="1.3"
       weight="33.333333"
       steps="2"
       helper_size="0"
       apply_no_weight="true"
       apply_with_weight="true"
       only_selected="false"
       uniform="false" />
    <inkscape:path-effect
       effect="bspline"
       id="path-effect1"
       is_visible="true"
       lpeversion="1.3"
       weight="33.333333"
       steps="2"
       helper_size="0"
       apply_no_weight="true"
       apply_with_weight="true"
       only_selected="false"
       uniform="false" />
  </defs>
  <g
     inkscape:label="Layer 1"
     inkscape:groupmode="layer"
     id="layer1">
    <path
       style="fill:#000000;stroke:#000000;stroke-width:1.88976;stroke-linejoin:round"
       d="m 122.7771,86.236297 c 0,0 -10.23142,121.315473 -10.23142,121.315473"
       id="path1"
       inkscape:path-effect="#path-effect1"
       inkscape:original-d="M 122.7771,86.236297 112.54568,207.55177"
       transform="matrix(2.0237726,0,0,1.0172625,-124.59263,-1.5022417)" />
    <path
       style="fill:#000000;stroke:#000000;stroke-width:1.88976;stroke-linejoin:round"
       d="m 146.52862,87.697929 c 0,0 8.40439,118.026801 8.40439,118.026801"
       id="path2"
       inkscape:path-effect="#path-effect2"
       inkscape:original-d="m 146.52862,87.697929 8.40439,118.026801"
       transform="matrix(0.99881732,0,0,1.0477719,-0.55254972,-5.6540642)" />
    <path
       style="fill:#000000;stroke:#000000;stroke-width:1.88976;stroke-linejoin:round"
       d="m 122.04629,86.967113 c 0,0 24.84774,-0.365408 24.84774,-0.365408"
       id="path3"
       inkscape:path-effect="#path-effect3"
       inkscape:original-d="m 122.04629,86.967113 24.84774,-0.365408" />
    <path
       style="fill:#000000;stroke:#000000;stroke-width:1.88976;stroke-linejoin:round"
       d="m 102.96543,209.03144 c 0,0 50.64297,0 50.64297,0"
       id="path4"
       inkscape:path-effect="#path-effect4"
       inkscape:original-d="M 102.96543,209.03144 H 153.6084"
       transform="translate(0,-0.2583825)" />
    <path
       style="fill:#e6e6e6;stroke:#000000;stroke-width:1.88976;stroke-linejoin:round"
       d="m 123.14251,87.697929 c 0,0 -0.36541,-17.539586 -0.36541,-17.539586"
       id="path5"
       inkscape:path-effect="#path-effect6"
       inkscape:original-d="M 123.14251,87.697929 122.7771,70.158343" />
    <path
       style="fill:#e6e6e6;stroke:#000000;stroke-width:1.88976;stroke-linejoin:round"
       d="m 131.54689,86.236297 c 0,0 0,-15.712545 0,-15.712545"
       id="path6"
       inkscape:path-effect="#path-effect7"
       inkscape:original-d="M 131.54689,86.236297 V 70.523752" />
    <path
       style="fill:#e6e6e6;stroke:#000000;stroke-width:1.88976;stroke-linejoin:round"
       d="m 139.95128,85.870889 c 0,0 0.36541,-15.347137 0.36541,-15.347137"
       id="path7"
       inkscape:path-effect="#path-effect8"
       inkscape:original-d="m 139.95128,85.870889 0.36541,-15.347137" />
    <path
       style="fill:#e6e6e6;stroke:#000000;stroke-width:1.88976;stroke-linejoin:round"
       d="m 146.16322,85.505481 c 0,0 0.73081,-14.616321 0.73081,-14.616321"
       id="path8"
       inkscape:path-effect="#path-effect9"
       inkscape:original-d="M 146.16322,85.505481 146.89403,70.88916" />
    <path
       style="fill:#e6e6e6;stroke:#000000;stroke-width:1.88976;stroke-linejoin:round"
       d="m 122.7771,71.254568 c 0,0 24.11693,-0.365408 24.11693,-0.365408"
       id="path9"
       inkscape:path-effect="#path-effect10"
       inkscape:original-d="M 122.7771,71.254568 146.89403,70.88916" />
    <path
       style="fill:#e6e6e6;stroke:#000000;stroke-width:1.88976;stroke-linejoin:round"
       d="m 122.41169,67.235079 c 0,0 23.02071,-0.365408 23.02071,-0.365408"
       id="path10"
       inkscape:path-effect="#path-effect11"
       inkscape:original-d="M 122.41169,67.235079 145.4324,66.869671" />
    <path
       style="fill:#e6e6e6;stroke:#000000;stroke-width:1.88976;stroke-linejoin:round"
       d="m 146.52862,71.254568 c 0,0 -1.09622,-5.481121 -1.09622,-5.481121"
       id="path11"
       inkscape:path-effect="#path-effect12"
       inkscape:original-d="M 146.52862,71.254568 145.4324,65.773447" />
    <path
       style="fill:#e6e6e6;stroke:#000000;stroke-width:1.88976;stroke-linejoin:round"
       d="m 122.04629,70.88916 c 0,0 1.82704,-4.384897 1.82704,-4.384897"
       id="path12"
       inkscape:path-effect="#path-effect13"
       inkscape:original-d="m 122.04629,70.88916 1.82704,-4.384897" />
    <path
       style="fill:#e6e6e6;stroke:#000000;stroke-width:1.88976;stroke-linejoin:round"
       d="m 74.908648,230.20706 c 0,0 84.774662,16.44337 84.774662,16.44337"
       id="path13"
       inkscape:path-effect="#path-effect14"
       inkscape:original-d="m 74.908648,230.20706 84.774662,16.44337" />
    <path
       style="fill:#e6e6e6;stroke:#000000;stroke-width:1.88976;stroke-linejoin:round"
       d="m 74.177832,234.22655 c 0,0 84.409258,16.80877 84.409258,16.80877"
       id="path14"
       inkscape:path-effect="#path-effect15"
       inkscape:original-d="m 74.177832,234.22655 84.409258,16.80877" />
    <path
       style="fill:#e6e6e6;stroke:#000000;stroke-width:1.88976;stroke-linejoin:round"
       d="m 75.274056,229.11084 c 0,0 17.174178,-4.3849 17.174178,-4.3849"
       id="path15"
       inkscape:path-effect="#path-effect16"
       inkscape:original-d="m 75.274056,229.11084 17.174178,-4.3849" />
    <path
       style="fill:#e6e6e6;stroke:#000000;stroke-width:1.88976;stroke-linejoin:round"
       d="m 93.909866,222.8989 c 0,0 84.043844,9.50061 84.043844,9.50061"
       id="path16"
       inkscape:path-effect="#path-effect17"
       inkscape:original-d="m 93.909866,222.8989 84.043844,9.50061"
       transform="translate(-1.8270402,1.4616322)" />
    <path
       style="fill:#e6e6e6;stroke:#000000;stroke-width:1.88976;stroke-linejoin:round"
       d="m 159.68331,246.28502 c 0,0 16.44336,-10.96224 16.44336,-10.96224"
       id="path17"
       inkscape:path-effect="#path-effect18"
       inkscape:original-d="m 159.68331,246.28502 16.44336,-10.96224"
       transform="matrix(0.98866276,0,0,1.1622993,1.1270863,-39.584736)" />
    <path
       style="fill:#e6e6e6;stroke:#000000;stroke-width:1.88976;stroke-linejoin:round"
       d="m 158.58709,251.58344 c 0,0 0.27406,-4.3849 0.27406,-4.3849"
       id="path18"
       inkscape:path-effect="#path-effect19"
       inkscape:original-d="m 158.58709,251.58344 0.27406,-4.3849" />
    <path
       style="fill:#e6e6e6;stroke:#000000;stroke-width:1.88976;stroke-linejoin:round"
       d="m 175.66991,234.22655 c 0,0 0,3.47138 0,3.47138"
       id="path19"
       inkscape:path-effect="#path-effect20"
       inkscape:original-d="m 175.66991,234.22655 v 3.47138" />
    <path
       style="fill:#e6e6e6;stroke:#000000;stroke-width:1.88976;stroke-linejoin:round"
       d="m 158.86115,251.12668 c 0,0 16.62606,-13.97686 16.62606,-13.97686"
       id="path20"
       inkscape:path-effect="#path-effect21"
       inkscape:original-d="m 158.86115,251.12668 16.62606,-13.97686" />
    <path
       style="fill:#e6e6e6;stroke:#000000;stroke-width:1.88976;stroke-linejoin:round"
       d="m 74.725944,234.50061 c 0,0 0.822168,-4.5676 0.822168,-4.5676"
       id="path21"
       inkscape:path-effect="#path-effect22"
       inkscape:original-d="m 74.725944,234.50061 0.822168,-4.5676" />
    <path
       style="fill:none;stroke:#000000;stroke-width:1.88976;stroke-linejoin:round"
       d="m 85.140073,203.89769 c 0.614317,0.68223 0.891982,1.65405 0.730816,2.55785 -0.03289,0.18441 -0.08294,0.36619 -0.09964,0.55276 -0.0167,0.18658 0.0028,0.38314 0.09964,0.54347 0.08993,0.14885 0.236855,0.25235 0.376762,0.35564 0.139907,0.10329 0.281929,0.21693 0.354054,0.37517 0.04215,0.0925 0.05765,0.19491 0.06373,0.29636 0.0061,0.10144 0.0032,0.20331 0.0107,0.30466 0.0075,0.10134 0.02604,0.20356 0.07211,0.29414 0.04608,0.0906 0.122449,0.16895 0.218867,0.20107 0.05823,0.0194 0.120888,0.0213 0.182128,0.0173 0.06124,-0.004 0.122005,-0.0138 0.18328,-0.0173 0.237005,-0.0134 0.474916,0.0713 0.662288,0.21708 0.187373,0.14574 0.325544,0.34961 0.409963,0.57147 0.168837,0.44373 0.125044,0.94001 0.02397,1.40389 -0.01324,0.0608 -0.02746,0.12163 -0.03122,0.18369 -0.0038,0.0621 0.0035,0.12609 0.03122,0.18172 0.03889,0.0779 0.112978,0.13116 0.183955,0.18165 0.03549,0.0252 0.07101,0.0507 0.102869,0.0804 0.03186,0.0297 0.06013,0.0639 0.07858,0.10337 0.02623,0.0561 0.03136,0.11997 0.02698,0.18172 -0.0044,0.0618 -0.01777,0.12247 -0.02698,0.18369 -0.04551,0.30268 0.01281,0.61438 0.125892,0.89881 0.113082,0.28443 0.279178,0.5446 0.455159,0.79503 0.351962,0.50087 0.758851,0.99489 0.880582,1.59483 0.04877,0.24034 0.04877,0.49048 0,0.73082 0.22518,0.17011 0.364425,0.4486 0.365408,0.73081 8.89e-4,0.25524 -0.103342,0.49768 -0.154788,0.74768 -0.02572,0.125 -0.03824,0.25437 -0.01749,0.38029 0.02075,0.12593 0.07703,0.24873 0.17228,0.33367 0.06655,0.0594 0.14878,0.0979 0.220955,0.15033 0.03609,0.0262 0.06992,0.0561 0.09622,0.0921 0.02629,0.036 0.04482,0.0785 0.04824,0.12293 0.0049,0.0634 -0.02063,0.1246 -0.03435,0.18668 -0.0069,0.031 -0.01082,0.0631 -0.0065,0.0946 0.0043,0.0315 0.01752,0.0625 0.04085,0.0841 0.02314,0.0214 0.05468,0.0322 0.08611,0.0346 0.03143,0.002 0.06296,-0.003 0.09361,-0.0102 0.03065,-0.007 0.06083,-0.0167 0.09179,-0.0226 0.03095,-0.006 0.06309,-0.008 0.0939,-0.002 0.03372,0.007 0.06475,0.0254 0.089,0.0499 0.02425,0.0245 0.04184,0.0553 0.0525,0.0881 0.02131,0.0656 0.0149,0.13755 -0.004,0.20391 -0.01888,0.0664 -0.04963,0.1286 -0.07747,0.19173 -0.02784,0.0631 -0.05313,0.1285 -0.06004,0.19715 -0.0082,0.0812 0.01023,0.16416 0.04708,0.23701 0.03684,0.0729 0.09161,0.13589 0.155152,0.18716 0.127091,0.10252 0.285698,0.1571 0.443271,0.19992 0.157573,0.0428 0.319001,0.0763 0.467373,0.14448 0.07418,0.0341 0.144812,0.0769 0.205622,0.13138 0.06081,0.0545 0.111662,0.12094 0.143138,0.19627 0.04821,0.11538 0.04821,0.25003 0,0.36541 0.0047,0.0943 0.04549,0.18638 0.112258,0.25315 0.06677,0.0668 0.15884,0.1076 0.25315,0.11226 0.06139,0.003 0.122414,-0.009 0.183528,-0.0152 0.06111,-0.007 0.124841,-0.008 0.18188,0.0152 0.04054,0.0163 0.07568,0.044 0.10555,0.0759 0.02987,0.0319 0.05485,0.0679 0.07945,0.10404 0.0246,0.0361 0.04905,0.0725 0.07802,0.10517 0.02897,0.0327 0.06282,0.0618 0.102391,0.0803 0.05599,0.0262 0.12006,0.0297 0.181648,0.0245 0.06159,-0.005 0.122237,-0.0186 0.18376,-0.0245 0.179659,-0.0173 0.364951,0.032 0.512364,0.1361 0.147413,0.10414 0.255724,0.26233 0.299498,0.43743 0.04377,0.17509 0.02265,0.36564 -0.05841,0.5269 -0.08107,0.16126 -0.221395,0.29188 -0.388039,0.3612"
       id="path29"
       inkscape:path-effect="#path-effect30"
       inkscape:original-d="m 85.140073,203.89769 c 1.152138,5.76069 -0.233925,-0.33637 0.730816,2.55785 0.09093,0.27281 -0.156842,0.86096 0,1.09623 0.1911,0.28665 0.553567,0.4354 0.730816,0.73081 0.198171,0.33029 0.151752,0.77574 0.365408,1.09623 0.06756,0.10134 0.279281,-0.0861 0.365408,0 0.392365,0.39236 0.919511,1.6623 1.096224,2.19244 0.03852,0.11556 -0.05447,0.25647 0,0.36541 0.07703,0.15407 0.288374,0.21134 0.365408,0.36541 0.05447,0.10894 -0.03852,0.24986 0,0.36541 0.371085,1.11325 1.175545,2.14432 1.461633,3.28867 0.05908,0.23633 0,0.48721 0,0.73082 0.121802,0.2436 0.27928,0.47243 0.365408,0.73081 0.140923,0.42277 -0.19633,1.06898 0,1.46164 0.07703,0.15406 0.288373,0.21133 0.365408,0.3654 0.05447,0.10895 -0.08613,0.27928 0,0.36541 0.08613,0.0861 0.27928,-0.0861 0.365408,0 0.172255,0.17226 -0.108944,0.51293 0,0.73082 0.302808,0.60561 1.047498,0.68209 1.461632,1.09622 0.08613,0.0861 -0.08613,0.27928 0,0.36541 0.974421,0 -0.121803,-0.1218 0.365408,0.36541 0.08613,0.0861 0.256464,-0.0545 0.365408,0 0.15407,0.077 0.211338,0.28837 0.365408,0.36541 0.108944,0.0545 0.256464,-0.0545 0.365408,0 0.557239,0.27862 0.365408,0.96024 0.365408,1.46163"
       transform="matrix(1.2620258,0,0,1.113151,-25.108633,-25.500759)" />
    <path
       style="fill:none;stroke:#000000;stroke-width:1.88976;stroke-linejoin:round"
       d="m 175.39586,233.13033 c -0.51608,-0.16014 -0.96672,-0.52177 -1.23481,-0.99093 -0.26809,-0.46916 -0.35087,-1.04101 -0.22682,-1.56693 0.0144,-0.061 0.0315,-0.12174 0.0364,-0.18421 0.005,-0.0625 -0.003,-0.12796 -0.0364,-0.1812 -0.0192,-0.0309 -0.0464,-0.0568 -0.0782,-0.0745 -0.0318,-0.0177 -0.0682,-0.0271 -0.10454,-0.0271 -0.0364,0 -0.0727,0.009 -0.10453,0.0271 -0.0318,0.0177 -0.059,0.0436 -0.0782,0.0745 l -0.36541,-0.3654 c 0.0218,-0.39385 -0.11169,-0.79421 -0.36541,-1.09623 -0.11086,-0.13196 -0.24249,-0.2446 -0.36541,-0.36541 -0.4901,-0.4817 -0.83817,-1.09054 -1.11097,-1.72127 -0.27279,-0.63072 -0.47579,-1.28899 -0.71607,-1.93281 -0.17676,-0.47363 -0.37696,-0.95622 -0.3654,-1.46163 0.006,-0.24712 0.0622,-0.49001 0.0889,-0.73574 0.0267,-0.24574 0.0213,-0.50464 -0.0889,-0.72589 -0.0999,-0.20052 -0.2753,-0.35054 -0.42946,-0.51307 -0.0771,-0.0813 -0.15012,-0.16742 -0.20571,-0.26466 -0.0556,-0.0972 -0.0933,-0.20651 -0.0957,-0.31849 -0.001,-0.0613 0.008,-0.12216 0.0129,-0.18323 0.005,-0.0611 0.005,-0.1237 -0.0129,-0.18218 -0.0261,-0.0836 -0.0881,-0.15141 -0.15601,-0.20675 -0.0679,-0.0553 -0.14331,-0.10116 -0.2094,-0.15866 -0.19232,-0.16733 -0.29108,-0.42363 -0.31029,-0.67783 -0.0192,-0.25419 0.0339,-0.50845 0.104,-0.75354 0.0701,-0.24509 0.15768,-0.4856 0.21019,-0.73505 0.0525,-0.24946 0.0688,-0.51249 -0.004,-0.75684 -0.0778,-0.26157 -0.25083,-0.48316 -0.36541,-0.73082 -0.21112,-0.45633 -0.21112,-1.0053 0,-1.46163"
       id="path31"
       inkscape:path-effect="#path-effect32"
       inkscape:original-d="m 175.39586,233.13033 c -0.26501,-0.92768 -1.1511,-1.62625 -1.46163,-2.55786 -0.0385,-0.11555 0.0861,-0.27928 0,-0.36541 -0.0861,-0.0861 -0.24361,0 -0.36541,0 -0.1218,-0.1218 -0.26986,-0.22208 -0.36541,-0.3654 -0.69224,0.0416 -0.2436,-0.85262 -0.36541,-1.09623 -0.077,-0.15407 -0.26986,-0.22208 -0.36541,-0.36541 -0.73413,-1.10119 -1.36874,-2.43195 -1.82704,-3.65408 -0.17633,-0.47023 -0.28284,-0.96626 -0.3654,-1.46163 -0.0801,-0.48058 0.18094,-1.00927 0,-1.46163 -0.16311,-0.40776 -0.53442,-0.70342 -0.73082,-1.09622 -0.0545,-0.10895 0.0545,-0.25647 0,-0.36541 -0.077,-0.15407 -0.28837,-0.21134 -0.36541,-0.36541 -0.36758,-0.73517 0.20014,-2.12272 0,-2.92326 -0.066,-0.26423 -0.27928,-0.47244 -0.36541,-0.73082 -0.12796,-0.3839 0,-1.05358 0,-1.46163"
       transform="matrix(1.1849122,0,0,1.1674899,-32.479086,-39.203614)" />
    <path
       style="fill:none;stroke:#000000;stroke-width:1.88976;stroke-linejoin:round"
       d="m 187.45432,88.063337 c -0.9024,-0.198667 -1.89662,0.0854 -2.55785,0.730816 -0.24695,0.241042 -0.45089,0.529016 -0.73082,0.730817 -0.2217,0.159824 -0.48074,0.257965 -0.73536,0.357269 -0.25463,0.0993 -0.51209,0.203776 -0.72627,0.373547 -0.27435,0.217469 -0.45801,0.525695 -0.6646,0.80833 -0.1033,0.141318 -0.21422,0.278264 -0.34525,0.394325 -0.13104,0.116062 -0.28342,0.211074 -0.45178,0.258977 -0.13856,0.03942 -0.28507,0.04638 -0.42245,0.08976 -0.0687,0.02169 -0.1352,0.0528 -0.19076,0.09864 -0.0556,0.04584 -0.0998,0.107231 -0.11761,0.177012 -0.0152,0.05926 -0.011,0.121581 -0.005,0.182456 0.006,0.06087 0.0136,0.122379 0.005,0.182952 -0.0123,0.08757 -0.058,0.167987 -0.11746,0.233428 -0.0595,0.06544 -0.13233,0.117223 -0.20695,0.16467 -0.0746,0.04745 -0.15173,0.09119 -0.22312,0.14337 -0.0714,0.05218 -0.13757,0.113651 -0.18328,0.189348 -0.0729,0.120788 -0.0879,0.266375 -0.12448,0.402655 -0.0183,0.06814 -0.0426,0.135451 -0.0815,0.194325 -0.0389,0.05887 -0.0934,0.109129 -0.15943,0.133836 -0.0576,0.02152 -0.12072,0.0228 -0.18197,0.01784 -0.0613,-0.005 -0.12202,-0.01589 -0.18344,-0.01784 -0.19359,-0.0062 -0.3834,0.0794 -0.52619,0.210268 -0.14279,0.130869 -0.24174,0.304009 -0.30885,0.485701 -0.13421,0.363386 -0.14702,0.7609 -0.26119,1.131071 -0.1554,0.503863 -0.48978,0.931457 -0.83919,1.326346 -0.34941,0.394889 -0.72436,0.77478 -0.98785,1.23151 -0.20516,0.355635 -0.33676,0.747786 -0.48851,1.129285 -0.15174,0.381499 -0.32922,0.761483 -0.60771,1.063163 -0.23416,0.25367 -0.53492,0.44656 -0.73082,0.73082 -0.1275,0.18501 -0.20441,0.40096 -0.25213,0.62052 -0.0477,0.21957 -0.0674,0.44409 -0.0892,0.66772 -0.0218,0.22363 -0.0459,0.44802 -0.1021,0.66557 -0.0562,0.21755 -0.14591,0.42945 -0.28735,0.60404 -0.10851,0.13394 -0.24443,0.24262 -0.36541,0.36541 -0.30922,0.31386 -0.51437,0.71246 -0.73082,1.09623 -0.53691,0.95195 -1.17808,1.86776 -1.46163,2.92326 -0.13043,0.48551 -0.18262,0.99332 -0.36541,1.46163 -0.20019,0.51288 -0.54653,0.95243 -0.85245,1.41019 -0.30591,0.45776 -0.58183,0.96319 -0.60918,1.51308 -0.0122,0.24478 0.0257,0.48886 0.0476,0.73296 0.0219,0.2441 0.0272,0.49526 -0.0476,0.72867 -0.0832,0.25978 -0.25941,0.47948 -0.36541,0.73081 -0.12129,0.28758 -0.14631,0.60504 -0.17315,0.91599 -0.0269,0.31095 -0.0589,0.62886 -0.19225,0.91105 -0.0584,0.12365 -0.1351,0.23762 -0.20465,0.35538 -0.0696,0.11776 -0.13286,0.24155 -0.16076,0.37544 -0.0498,0.23912 0.017,0.48716 0,0.73082 -0.0135,0.19289 -0.0792,0.37817 -0.15362,0.55663 -0.0744,0.17846 -0.15847,0.35373 -0.21179,0.53959 -0.11801,0.41131 -0.0844,0.84898 -0.0521,1.27567 0.0322,0.42669 0.0521,0.85428 0.0521,1.28219 v 4.01949 9.86601 c 0,0.67714 -0.0532,1.35285 -0.13902,2.02453 -0.0429,0.33583 -0.0841,0.67326 -0.0781,1.01177 0.006,0.33852 0.0625,0.68195 0.21708,0.98319 0.0625,0.12179 0.14016,0.23506 0.20933,0.35319 0.0692,0.11812 0.13055,0.24315 0.15608,0.37763 0.0344,0.18102 0.002,0.36707 -0.0228,0.54966 -0.0248,0.18258 -0.0411,0.37373 0.0228,0.54656 0.0616,0.1667 0.19871,0.30381 0.36541,0.36541 0.22573,0.45306 0.35138,0.95565 0.3654,1.46163 0.0102,0.36685 -0.0374,0.73248 -0.0637,1.09852 -0.0263,0.36605 -0.0307,0.73929 0.0637,1.09393 0.0992,0.37286 0.30504,0.71514 0.36541,1.09622 0.0382,0.2413 0.0163,0.48756 -0.004,0.731 -0.0206,0.24344 -0.0396,0.49031 0.004,0.73064 0.0694,0.37958 0.29099,0.71759 0.36541,1.09622 0.0707,0.35948 0.004,0.72989 0,1.09622 -0.007,0.56331 0.13409,1.11756 0.29627,1.65706 0.16217,0.5395 0.34752,1.07503 0.43455,1.63162 0.0756,0.4833 0.0756,0.97833 0,1.46163 0.47025,0.76484 0.72601,1.66002 0.73081,2.55785 0.003,0.48988 -0.0676,0.97686 -0.10335,1.46544 -0.0357,0.48857 -0.0357,0.9881 0.10335,1.45783 0.10952,0.36992 0.30359,0.71541 0.36541,1.09622 0.0782,0.48194 -0.0624,0.97739 0,1.46164 0.0495,0.38422 0.22351,0.7394 0.38805,1.09012 0.16453,0.35072 0.32458,0.71535 0.34277,1.10232 0.0114,0.24364 -0.034,0.4893 0,0.73082 0.0269,0.19125 0.10266,0.37175 0.17889,0.54921 0.0762,0.17746 0.15432,0.35658 0.18651,0.54701 0.0408,0.24159 0.006,0.48863 -0.0219,0.73207 -0.0277,0.24344 -0.0476,0.49461 0.0219,0.72957 0.0774,0.26169 0.25844,0.47976 0.36541,0.73081 0.0962,0.22585 0.1306,0.47397 0.13427,0.71945 0.004,0.24547 -0.0218,0.49037 -0.0484,0.73443 -0.0531,0.48813 -0.0859,0.97839 -0.0859,1.46939 v 7.67357 11.32764 c 0,1.70677 0.2329,3.42491 0,5.11572 -0.26336,1.91193 -1.29613,3.62559 -1.82704,5.48112 -0.13816,0.48287 -0.24209,0.97476 -0.36541,1.46163 -0.4058,1.60213 -1.04892,3.19165 -2.19244,4.3849 -0.19827,0.20689 -0.41226,0.40291 -0.56665,0.64432 -0.0772,0.12071 -0.13879,0.25248 -0.17075,0.39215 -0.032,0.13967 -0.0335,0.2876 0.007,0.42516 0.0181,0.0622 0.0446,0.12244 0.0532,0.18666 0.004,0.0321 0.004,0.0651 -0.004,0.0965 -0.008,0.0314 -0.0246,0.061 -0.049,0.0823 -0.0238,0.0208 -0.0543,0.0329 -0.0854,0.0378 -0.0312,0.005 -0.0631,0.003 -0.0943,-0.002 -0.0623,-0.01 -0.12271,-0.0321 -0.18572,-0.0358 -0.0891,-0.005 -0.17862,0.0283 -0.24707,0.0856 -0.0685,0.0573 -0.11634,0.13719 -0.14137,0.22288 -0.025,0.0857 -0.0279,0.17695 -0.0154,0.26533 0.0125,0.0884 0.0401,0.17411 0.075,0.25629 0.0697,0.16438 0.16802,0.31513 0.24195,0.47763 0.0739,0.1625 0.12342,0.34455 0.0869,0.51931 -0.0228,0.10933 -0.0783,0.20969 -0.14621,0.29834 -0.0679,0.0887 -0.14841,0.16678 -0.22798,0.24514 -0.0796,0.0784 -0.15895,0.15779 -0.22418,0.24845 -0.0652,0.0907 -0.11622,0.19379 -0.13244,0.30429 -0.0138,0.094 -0.002,0.1901 0.0184,0.2829 0.0205,0.0928 0.0496,0.18348 0.0712,0.27602 0.0216,0.0925 0.0357,0.1881 0.0253,0.28256 -0.0103,0.0945 -0.0469,0.18836 -0.1149,0.25474 -0.0501,0.0489 -0.11474,0.0808 -0.1813,0.10265 -0.0666,0.0219 -0.13571,0.0345 -0.20401,0.0501 -0.0683,0.0156 -0.13661,0.0344 -0.19832,0.0676 -0.0617,0.0332 -0.11693,0.0819 -0.14719,0.1451 -0.0268,0.0559 -0.0326,0.11986 -0.0284,0.18172 0.004,0.0618 0.0179,0.1226 0.0284,0.18369 0.0911,0.52545 -0.0497,1.06783 -0.27744,1.55003 -0.22778,0.48221 -0.54007,0.91858 -0.81878,1.37324 -0.56972,0.92938 -0.99949,1.93597 -1.46164,2.92326 -0.27855,0.59508 -0.57144,1.18962 -0.73081,1.82704 -0.12203,0.48808 -0.16549,0.99996 -0.36541,1.46163 -0.1752,0.4046 -0.46147,0.74916 -0.74093,1.09018 -0.27946,0.34103 -0.56007,0.69167 -0.7207,1.10227 -0.18319,0.46828 -0.19931,0.98702 -0.36541,1.46163 -0.13554,0.38727 -0.36628,0.73257 -0.5838,1.08046 -0.21753,0.3479 -0.42714,0.71065 -0.51243,1.11199 -0.053,0.24939 -0.0563,0.50648 -0.0914,0.75901 -0.0351,0.25253 -0.10704,0.50991 -0.27398,0.70262 -0.1144,0.13207 -0.26586,0.22523 -0.40496,0.33097 -0.0695,0.0529 -0.13672,0.10954 -0.19416,0.17536 -0.0574,0.0658 -0.10509,0.14128 -0.1317,0.22449 -0.0373,0.11671 -0.0318,0.24251 -0.0194,0.36442 0.0124,0.1219 0.0313,0.24444 0.0194,0.36639 -0.0217,0.22233 -0.14404,0.42276 -0.28694,0.59447 -0.14289,0.17171 -0.30917,0.32355 -0.44388,0.50176 -0.36544,0.48346 -0.46734,1.1254 -0.40785,1.72851 0.0595,0.60311 0.26553,1.18064 0.46518,1.75285 0.19965,0.57221 0.39622,1.15436 0.43553,1.75913 0.0196,0.30238 -8.7e-4,0.60881 -0.0791,0.90156 -0.0782,0.29275 -0.21532,0.57172 -0.41378,0.8007 -0.11285,0.13021 -0.24409,0.24304 -0.3654,0.36541 -0.44224,0.4461 -0.75438,1.04002 -0.78277,1.66753 -0.0142,0.31375 0.0429,0.63186 0.17601,0.91635 0.13308,0.28449 0.34301,0.53427 0.60676,0.70479 0.0746,0.0482 0.15361,0.0904 0.22203,0.14708 0.0684,0.0567 0.12687,0.13103 0.14337,0.21833 0.0114,0.0602 0.002,0.12218 -0.005,0.18303 -0.007,0.0608 -0.013,0.12386 0.005,0.18238 0.013,0.0417 0.0377,0.0791 0.0673,0.11123 0.0297,0.0321 0.0643,0.0592 0.0997,0.0848 0.0709,0.0511 0.14759,0.0983 0.19838,0.16939 0.0364,0.0509 0.0573,0.11184 0.0662,0.17381 0.009,0.062 0.006,0.12512 -0.002,0.18715 -0.0167,0.12406 -0.0547,0.245 -0.0637,0.36985 -0.0103,0.14255 0.0185,0.28771 0.0824,0.41554 0.0639,0.12783 0.16277,0.23797 0.28297,0.31528"
       id="path39"
       inkscape:path-effect="#path-effect40"
       inkscape:original-d="m 187.45432,88.063337 c -0.45484,1.889062 -1.76473,0.334256 -2.55785,0.730816 -0.30814,0.15407 -0.44417,0.539717 -0.73082,0.730817 -0.45323,0.302155 -1.0084,0.42866 -1.46163,0.730816 -0.5733,0.382199 -0.91042,1.04822 -1.46163,1.461632 -0.21789,0.163415 -0.53823,0.172821 -0.73082,0.365408 -0.0861,0.08613 0.0545,0.256464 0,0.365408 -0.15407,0.308139 -0.53972,0.444166 -0.73081,0.730816 -0.15108,0.226616 -0.17283,0.538229 -0.36541,0.730816 -0.0861,0.08613 -0.27928,-0.08613 -0.36541,0 -1.37083,1.370833 -0.23119,0.673659 -1.09623,1.82704 -2.09589,2.794525 1.22529,-2.78372 -1.82704,2.557856 -0.3654,0.639465 -0.73081,1.644337 -1.09622,2.192448 -0.1911,0.28665 -0.55357,0.4354 -0.73082,0.73082 -0.31889,0.53149 -0.53969,2.08006 -0.73081,2.55785 -0.064,0.15994 -0.26206,0.22761 -0.36541,0.36541 -0.2635,0.35133 -0.50487,0.71964 -0.73082,1.09623 -0.51681,0.86136 -1.1443,1.97128 -1.46163,2.92326 -0.15881,0.47643 -0.16758,1.00003 -0.36541,1.46163 -0.96321,2.2475 -0.76404,-0.2159 -1.46163,2.92327 -0.10569,0.4756 0.0801,0.98105 0,1.46163 -0.0448,0.26865 -0.29058,0.46893 -0.36541,0.73081 -0.17062,0.59718 -0.19478,1.22987 -0.3654,1.82704 -0.0748,0.26188 -0.29936,0.46659 -0.36541,0.73082 -0.0591,0.23633 0.0478,0.49194 0,0.73082 -0.0755,0.37769 -0.28987,0.71853 -0.36541,1.09622 -0.14887,0.74434 0,1.81448 0,2.55786 0,1.33983 0,2.67966 0,4.01949 0,3.28867 0,6.57734 0,9.86601 0,1.28921 -0.21153,2.75033 0,4.01949 0.0448,0.26865 0.31199,0.46375 0.36541,0.73082 0.0717,0.35831 -0.0886,0.74172 0,1.09622 0.0418,0.16711 0.2436,0.24361 0.36541,0.36541 0.1218,0.48721 0.28284,0.96626 0.3654,1.46163 0.12015,0.72087 -0.10335,1.46898 0,2.19245 0.0545,0.3813 0.31094,0.71492 0.36541,1.09622 0.0689,0.48232 -0.0689,0.97932 0,1.46164 0.0545,0.3813 0.30209,0.71629 0.36541,1.09622 0.0601,0.36044 -0.0403,0.73305 0,1.09622 0.4022,3.61982 0.14491,0.94504 0.73082,3.28868 0.11816,0.47266 -0.0689,0.97931 0,1.46163 -0.0346,0.92524 0.58503,1.68318 0.73081,2.55785 0.15802,0.94809 -0.15801,1.97518 0,2.92327 0.0633,0.37993 0.28987,0.71853 0.36541,1.09622 0.0956,0.47775 -0.0956,0.98389 0,1.46164 0.15108,0.75538 0.57974,1.43706 0.73082,2.19244 0.0478,0.23888 -0.0478,0.49194 0,0.73082 0.0755,0.37769 0.31093,0.71492 0.3654,1.09622 0.0689,0.48232 -0.0801,0.98105 0,1.46164 0.0448,0.26865 0.29936,0.46658 0.36541,0.73081 0.21189,0.84754 0,2.05326 0,2.92327 0,2.55785 0,5.11571 0,7.67357 0,3.77588 0,7.55176 0,11.32764 0,1.6723 0.16504,3.46537 0,5.11572 -0.19163,1.91631 -1.21802,3.65408 -1.82704,5.48112 -0.15881,0.47643 -0.18907,0.9914 -0.36541,1.46163 -0.55135,1.47029 -1.48993,2.97986 -2.19244,4.3849 -0.24361,0.48721 -0.55857,0.94486 -0.73082,1.46163 -0.0385,0.11555 0.0861,0.27928 0,0.36541 -0.0861,0.0861 -0.27928,-0.0861 -0.36541,0 -0.25331,0.25331 0.11569,1.47998 0,1.82704 -0.0289,0.0868 -0.70187,1.00937 -0.73081,1.09622 -0.11556,0.34666 0.25838,0.83784 0,1.09622 -0.19259,0.19259 -0.53823,0.17283 -0.73082,0.36541 -0.0861,0.0861 0.0385,0.24986 0,0.36541 -0.32712,0.98135 -0.72296,1.92791 -1.09622,2.92327 -1.89666,5.05774 0.30439,-0.60879 -1.46164,2.92326 -0.29334,0.58668 -0.52339,1.20477 -0.73081,1.82704 -0.15881,0.47643 -0.14082,1.01245 -0.36541,1.46163 -0.3928,0.78561 -1.06883,1.40685 -1.46163,2.19245 -0.2246,0.44919 -0.1789,0.99535 -0.36541,1.46163 -0.30346,0.75864 -0.79277,1.43381 -1.09623,2.19245 -0.18651,0.46629 -0.14081,1.01245 -0.3654,1.46163 -0.15407,0.30814 -0.57675,0.42268 -0.73082,0.73082 -0.10894,0.21789 0.0591,0.49448 0,0.73081 -0.44113,1.76454 -0.17365,-0.0181 -0.73082,1.09623 -0.38656,0.77313 0.37224,5.82604 0,6.94275 -0.0545,0.16342 -0.28837,0.21134 -0.3654,0.36541 -0.0202,0.0405 -0.0518,3.13319 0,3.28867 0.0545,0.16342 0.28837,0.21134 0.3654,0.36541 0.0545,0.10894 -0.0545,0.25646 0,0.36541 0.077,0.15407 0.28838,0.21134 0.36541,0.36541 0.10895,0.21788 -0.10894,0.51292 0,0.73081 0.45154,0.90307 0.36541,-0.12613 0.36541,0.73082"
       transform="matrix(1.0253039,0,0,0.99986282,-3.9441647,0.02388001)" />
    <path
       style="fill:none;stroke:#000000;stroke-width:1.88976;stroke-linejoin:round"
       d="m 96.102314,77.466504 c 0.167494,1.709559 0.04337,3.447316 -0.365408,5.115713 -0.119524,0.487827 -0.263179,0.969889 -0.365408,1.461632 -0.52202,2.511026 0.05864,5.109526 0,7.673569 -0.03358,1.468411 -0.277289,2.922717 -0.436432,4.382865 -0.159143,1.460147 -0.232453,2.949826 0.07102,4.386927 0.128478,0.6084 0.324231,1.20658 0.365408,1.82704 0.04036,0.60823 -0.06934,1.22143 0,1.82704 0.101069,0.88268 0.573574,1.68344 0.730816,2.55786 0.0659,0.36648 0.07537,0.74041 0.109581,1.1112 0.03422,0.37078 0.09516,0.74534 0.255827,1.08125 0.117748,0.24618 0.287854,0.46917 0.365408,0.73081 0.08718,0.29411 0.0494,0.609 0.0082,0.91297 -0.04124,0.30397 -0.08476,0.61703 -0.0082,0.91407 0.06844,0.26543 0.227475,0.49673 0.379455,0.72485 0.15198,0.22812 0.302908,0.46699 0.351361,0.73678 0.04315,0.24029 0.0016,0.4867 0,0.73082 -0.0034,0.50461 0.16343,0.99334 0.337223,1.46709 0.173793,0.47375 0.358556,0.95277 0.393593,1.45617 0.02538,0.36473 -0.02894,0.73176 0,1.09623 0.03079,0.38775 0.157387,0.76754 0.365409,1.09622 0.211092,0.58652 0.334678,1.20445 0.365408,1.82704 0.01802,0.36504 0.0043,0.73078 0,1.09623 -0.02045,1.73078 0.173601,3.47695 0.730816,5.11571 0.162809,0.47882 0.356095,0.94725 0.504255,1.4308 0.14816,0.48355 0.25118,0.98732 0.22656,1.49246 -0.012,0.24541 -0.0539,0.48843 -0.0718,0.73348 -0.0179,0.24505 -0.0109,0.4968 0.0718,0.72816 0.0918,0.2568 0.27173,0.47467 0.36541,0.73081 0.12625,0.3452 0.0907,0.72589 0.0561,1.09182 -0.0347,0.36593 -0.0561,0.73307 -0.0561,1.10063 v 4.7503 5.84653 c 0,0.42726 0.0153,0.85433 0.0402,1.28087 0.0249,0.42653 0.0512,0.85961 -0.0402,1.27699 -0.0824,0.37654 -0.26068,0.72527 -0.36541,1.09622 -0.16905,0.5988 -0.14398,1.24557 -0.36541,1.82704 -0.194214,0.51 -0.567966,0.94078 -0.730813,1.46164 -0.0931,0.29777 -0.113155,0.61251 -0.145414,0.92282 -0.03226,0.31032 -0.07928,0.62577 -0.219994,0.90422 -0.06177,0.12224 -0.140495,0.235 -0.210379,0.3528 -0.06988,0.11779 -0.131758,0.24304 -0.155029,0.37801 -0.02076,0.1204 -0.01004,0.24372 5.53e-4,0.36543 0.01059,0.12172 0.02093,0.24512 -5.53e-4,0.36539 -0.03903,0.21846 -0.178526,0.40463 -0.325329,0.57105 -0.146802,0.16643 -0.307636,0.32599 -0.405488,0.52517 -0.08345,0.16987 -0.116594,0.36062 -0.124895,0.5497 -0.0083,0.18907 0.0072,0.37825 0.01627,0.56729 0.009,0.18905 0.0114,0.37989 -0.02285,0.56602 -0.03425,0.18614 -0.107328,0.36876 -0.233931,0.50944 -0.115579,0.12843 -0.272815,0.21954 -0.365408,0.36541 -0.09159,0.14429 -0.107708,0.32508 -0.08916,0.49497 0.01855,0.1699 0.06874,0.3346 0.100222,0.50258 0.03148,0.16798 0.04351,0.3453 -0.01284,0.50665 -0.02818,0.0807 -0.0736,0.15602 -0.136126,0.21427 -0.06253,0.0582 -0.142618,0.0987 -0.227501,0.10857 -0.06079,0.007 -0.122158,-0.001 -0.183067,-0.007 -0.06091,-0.006 -0.123473,-0.009 -0.182341,0.007 -0.04979,0.0142 -0.09514,0.0426 -0.131332,0.0796 -0.03619,0.037 -0.06333,0.0825 -0.08096,0.13114 -0.03527,0.0973 -0.03228,0.20529 -0.0091,0.30618 0.04638,0.2018 0.168998,0.37902 0.221384,0.57934 0.05344,0.20436 0.03023,0.42375 -0.03909,0.62329 -0.06932,0.19953 -0.182803,0.38106 -0.309946,0.54975 -0.254286,0.33736 -0.569829,0.63598 -0.747189,1.01941 -0.16194,0.3501 -0.197543,0.74894 -0.365408,1.09623 -0.191498,0.39619 -0.542129,0.69868 -0.730816,1.09622 -0.193757,0.40822 -0.19925,0.87594 -0.244849,1.3255 -0.0228,0.22478 -0.05684,0.44995 -0.130437,0.66356 -0.07359,0.21362 -0.188759,0.41638 -0.35553,0.5688 -0.06409,0.0586 -0.135048,0.10914 -0.200683,0.16598 -0.06564,0.0568 -0.126848,0.12129 -0.164725,0.19942 -0.05499,0.11341 -0.05499,0.252 0,0.36541 -0.02872,0.27686 -0.161158,0.54173 -0.365408,0.73082 -0.06362,0.0589 -0.133632,0.11047 -0.198818,0.16762 -0.06518,0.0572 -0.126317,0.12102 -0.16659,0.19779 -0.0577,0.10999 -0.06858,0.23915 -0.05856,0.36296 0.01002,0.1238 0.03963,0.24509 0.05856,0.36785 0.08146,0.5284 -0.03837,1.07265 -0.254835,1.56151 -0.216464,0.48886 -0.526109,0.92998 -0.841389,1.36176 -0.259219,0.35501 -0.524775,0.70793 -0.730816,1.09622 -0.389897,0.73478 -0.551466,1.56548 -0.714108,2.38124 -0.162642,0.81577 -0.336763,1.64575 -0.747524,2.36907 -0.351801,0.6195 -0.871864,1.15087 -1.096225,1.82704 -0.116981,0.35255 -0.146972,0.72707 -0.177801,1.09725 -0.03083,0.37017 -0.06429,0.7448 -0.187607,1.09519 -0.06432,0.18276 -0.15221,0.35621 -0.226074,0.53533 -0.07386,0.17911 -0.13429,0.36722 -0.139334,0.5609 -0.0032,0.12252 0.01585,0.24438 0.02614,0.36651 0.01029,0.12214 0.01147,0.24765 -0.02614,0.3643 -0.05488,0.17024 -0.195171,0.31053 -0.365408,0.36541 -0.222356,0.3209 -0.350753,0.70609 -0.365408,1.09623 -0.0091,0.24359 0.02491,0.48832 0,0.73081 -0.0421,0.40972 -0.248763,0.78319 -0.473701,1.12822 -0.224939,0.34503 -0.475015,0.67967 -0.622523,1.06423 -0.138196,0.36028 -0.182864,0.75625 -0.365408,1.09622 -0.104295,0.19424 -0.249745,0.36259 -0.387427,0.53478 -0.137681,0.17219 -0.270581,0.35335 -0.343389,0.56145 -0.08199,0.23434 -0.08199,0.49647 0,0.73081 0.05102,0.67727 -0.226787,1.37179 -0.730816,1.82704 -0.12889,0.11642 -0.270909,0.21743 -0.402087,0.33127 -0.131178,0.11383 -0.253249,0.24313 -0.328729,0.39955 -0.10952,0.22697 -0.10952,0.50385 0,0.73082 0.05389,0.50978 -0.07796,1.03718 -0.365408,1.46163 -0.07767,0.11469 -0.166208,0.22205 -0.237795,0.34063 -0.07159,0.11857 -0.126484,0.25168 -0.127613,0.39019 -5e-4,0.0613 0.0095,0.1222 0.01465,0.18332 0.0051,0.0611 0.0051,0.12403 -0.01465,0.18208 -0.02816,0.0826 -0.0934,0.14707 -0.162151,0.20086 -0.06875,0.0538 -0.143671,0.10076 -0.203257,0.16455 -0.08626,0.0923 -0.135009,0.21544 -0.152463,0.34059 -0.01745,0.12515 -0.0053,0.2528 0.01823,0.37695 0.04706,0.24831 0.139734,0.49143 0.134237,0.74409 -0.0036,0.16581 -0.0499,0.3285 -0.11601,0.48059 -0.06611,0.1521 -0.151859,0.29475 -0.238178,0.43636 -0.172639,0.28322 -0.353624,0.5792 -0.376628,0.91009 -0.0085,0.12189 0.0051,0.24406 0.01397,0.36592 0.0089,0.12186 0.01297,0.24573 -0.01397,0.3649 -0.03015,0.13332 -0.09776,0.25489 -0.168846,0.37163 -0.07109,0.11674 -0.147008,0.2318 -0.196562,0.35919 -0.06728,0.17295 -0.08317,0.36244 -0.07202,0.54768 0.01116,0.18524 0.04848,0.36778 0.08465,0.54979 0.03617,0.18202 0.07139,0.36513 0.07826,0.55058 0.0069,0.18545 -0.01569,0.37474 -0.0909,0.54439 -0.05563,0.12548 -0.138236,0.2367 -0.211502,0.35278 -0.07327,0.11607 -0.138831,0.24161 -0.153906,0.37804 -0.01355,0.12266 0.01453,0.24551 0.03187,0.36769 0.0087,0.0611 0.01469,0.12285 0.01145,0.18447 -0.0032,0.0616 -0.01599,0.12334 -0.04332,0.17866 -0.03839,0.0777 -0.103269,0.13894 -0.170292,0.19394 -0.06702,0.055 -0.138103,0.10614 -0.195116,0.17146 -0.10339,0.11846 -0.153183,0.27676 -0.162702,0.4337 -0.0095,0.15695 0.0185,0.3138 0.05539,0.46665 0.0369,0.15284 0.08282,0.30369 0.110152,0.45853 0.02733,0.15484 0.0356,0.3157 -0.0028,0.46816 -0.03339,0.13245 -0.100622,0.25363 -0.170854,0.37078 -0.07023,0.11715 -0.144617,0.2329 -0.194555,0.36004 -0.112321,0.28596 -0.09245,0.60538 -0.05312,0.91008 0.03933,0.3047 0.09646,0.61281 0.05312,0.91696 -0.05444,0.3821 -0.262499,0.72424 -0.365408,1.09622 -0.130361,0.47121 -0.09314,0.97054 -0.05754,1.45816 0.03559,0.48761 0.05754,0.9762 0.05754,1.46511 v 7.30816 c 0,1.34871 -0.06227,2.70529 -0.365408,4.01949"
       id="path40"
       inkscape:path-effect="#path-effect41"
       inkscape:original-d="m 96.102314,77.466504 c -0.736648,1.665823 -0.152934,3.41592 -0.365408,5.115713 -0.06229,0.498327 -0.303117,0.963305 -0.365408,1.461632 -0.313817,2.510536 0.180294,5.149457 0,7.673569 -0.196315,2.748411 -0.713775,5.982859 -0.365408,8.769792 0.07703,0.61628 0.288373,1.21076 0.365408,1.82704 0.07554,0.60431 -0.119437,1.22985 0,1.82704 0.164639,0.82319 0.566178,1.73467 0.730816,2.55786 0.145302,0.72651 0.185714,1.47367 0.365408,2.19245 0.06606,0.26422 0.311994,0.46374 0.365408,0.73081 0.119438,0.59719 -0.192587,1.24928 0,1.82704 0.172255,0.51677 0.558561,0.94487 0.730816,1.46163 0.07703,0.23111 -0.04005,0.49053 0,0.73082 0.165124,0.99074 0.588771,1.92895 0.730816,2.92326 0.05168,0.36174 -0.06007,0.73579 0,1.09623 0.06332,0.37993 0.243606,0.73081 0.365409,1.09622 0.121802,0.60902 0.288373,1.21076 0.365408,1.82704 0.04532,0.36259 -0.06007,0.73579 0,1.09623 2.071721,9.32272 0.07526,-0.7843 0.730816,5.11571 0.110918,0.99827 0.606235,1.92661 0.730815,2.92326 0.0604,0.48345 -0.0801,0.98105 0,1.46164 0.0448,0.26865 0.31199,0.46374 0.36541,0.73081 0.14332,0.71663 0,1.46163 0,2.19245 0,1.58344 0,3.16687 0,4.7503 0,1.94885 0,3.89769 0,5.84653 0,0.81095 0.15844,1.76567 0,2.55786 -0.0755,0.37769 -0.27199,0.72255 -0.36541,1.09622 -0.15063,0.60253 -0.16901,1.23784 -0.36541,1.82704 -0.172252,0.51677 -0.52851,0.95588 -0.730813,1.46164 -0.230662,0.57665 -0.169008,1.23783 -0.365408,1.82704 -0.08613,0.25838 -0.299352,0.46659 -0.365408,0.73081 -0.05908,0.23633 0.05908,0.49449 0,0.73082 -0.441134,1.76453 -0.173649,-0.0181 -0.730817,1.09622 -1.021245,2.04249 0.147152,0.14221 -0.365408,2.19245 -0.04178,0.16711 -0.310936,0.20199 -0.365408,0.36541 -0.196401,0.5892 -0.134746,1.25039 -0.365408,1.82704 -0.04524,0.11309 -0.310936,-0.10894 -0.365408,0 -0.365408,0.73082 0.182704,0.54811 0,1.09622 -0.254783,0.76435 -0.796773,1.44382 -1.096224,2.19245 -0.14305,0.35763 -0.193153,0.75172 -0.365408,1.09623 -0.196401,0.3928 -0.534415,0.70342 -0.730816,1.09622 -0.456835,0.91367 -0.273981,1.64419 -0.730816,2.55786 -0.07704,0.15407 -0.288373,0.21133 -0.365408,0.3654 -0.05447,0.10895 0,0.24361 0,0.36541 -0.121803,0.24361 -0.21433,0.5042 -0.365408,0.73082 -0.09555,0.14332 -0.310936,0.20199 -0.365408,0.36541 -0.07703,0.2311 0.05908,0.49448 0,0.73081 -0.07256,0.29023 -0.98488,2.70058 -1.096224,2.92327 -0.196401,0.3928 -0.534415,0.70342 -0.730816,1.09622 -0.740897,1.48179 -0.846351,3.2121 -1.461632,4.75031 -0.263772,0.65942 -0.85351,1.15957 -1.096225,1.82704 -0.253196,0.69629 -0.204685,1.46919 -0.365408,2.19244 -0.08356,0.37601 -0.289869,0.71853 -0.365408,1.09623 -0.04778,0.23887 0.07703,0.49971 0,0.73081 -0.05447,0.16342 -0.243605,0.24361 -0.365408,0.36541 -0.121802,0.36541 -0.289869,0.71853 -0.365408,1.09623 -0.04778,0.23887 0.07704,0.49971 0,0.73081 -0.365408,1.09623 -0.730816,1.27893 -1.096224,2.19245 -0.14305,0.35763 -0.193153,0.75171 -0.365408,1.09622 -0.196401,0.39281 -0.567714,0.68847 -0.730816,1.09623 -0.09047,0.22618 0,0.48721 0,0.73081 -0.243605,0.60902 -0.405385,1.25754 -0.730816,1.82704 -0.170925,0.29912 -0.539716,0.44417 -0.730816,0.73082 -0.135128,0.20269 0.07703,0.49971 0,0.73082 -1.035144,2.07028 0.136179,-0.54472 -0.365408,1.46163 -0.06606,0.26423 -0.279281,0.47243 -0.365408,0.73082 -0.03852,0.11555 0.05447,0.25646 0,0.3654 -0.07703,0.15407 -0.32363,0.1983 -0.365408,0.36541 -0.118166,0.47267 0.180945,1.00927 0,1.46163 -0.785288,1.96322 -0.730816,0.82912 -0.730816,1.82704 0,0.24361 0.05908,0.49449 0,0.73082 -0.06606,0.26423 -0.311994,0.46375 -0.365408,0.73082 -0.143325,0.71662 0.143324,1.47582 0,2.19244 -0.05341,0.26707 -0.299352,0.46659 -0.365408,0.73082 -0.05908,0.23633 0.07703,0.49971 0,0.73082 -0.05447,0.16341 -0.33709,0.19549 -0.365408,0.3654 -0.100122,0.60073 0.08613,1.22415 0,1.82704 -0.03852,0.26963 -0.299352,0.46659 -0.365409,0.73082 -0.147707,0.59083 0.100122,1.22631 0,1.82704 -0.06332,0.37993 -0.302085,0.71629 -0.365408,1.09622 -0.150457,0.90275 0,1.99943 0,2.92327 0,2.43605 0,4.87211 0,7.30816 0,1.10287 0.41323,3.24085 -0.365408,4.01949" />
    <path
       style="fill:none;stroke:#000000;stroke-width:1.88976;stroke-linejoin:round"
       d="m 102.67966,213.39829 50.0609,0.36541"
       id="path41"
       inkscape:path-effect="#path-effect42"
       inkscape:original-d="m 102.67966,213.39829 50.0609,0.36541" />
    <path
       style="fill:none;stroke:#000000;stroke-width:1.88976;stroke-linejoin:round"
       d="m 154.20219,208.64799 -0.73081,6.21194"
       id="path42"
       inkscape:path-effect="#path-effect43"
       inkscape:original-d="m 154.20219,208.64799 -0.73081,6.21194" />
    <path
       style="fill:none;stroke:#000000;stroke-width:1.88976;stroke-linejoin:round"
       d="m 102.67966,209.0134 -0.36541,4.01949"
       id="path43"
       inkscape:path-effect="#path-effect44"
       inkscape:original-d="m 102.67966,209.0134 -0.36541,4.01949" />
  </g>
</svg>
